<svg xmlns="http://www.w3.org/2000/svg" width="1000" height="1000" viewBox="0 0 1000 1000">
  <defs>
    <style>
      .cls-1 {
        fill: #9558b2;
      }

      .cls-2 {
        fill: #b3b3b3;
      }

      .cls-3 {
        fill: #389826;
      }

      .cls-4 {
        fill: #4063d8;
      }

      .cls-5 {
        fill: #cb3c33;
      }
    </style>
  </defs>
  <title>logo</title>
  <g id="图层_1" data-name="图层 1">
    <circle class="cls-1" cx="517.92" cy="517.2" r="141.8"/>
    <path class="cls-2" d="M301.2,714A64,64,0,0,1,287,704.42a82.07,82.07,0,0,1-9.84-10.4,113.15,113.15,0,0,1-12.74-20.58,164.42,164.42,0,0,1-8.2-20.08c-2.24-6.63-4.1-13.22-5.67-19.78A296.93,296.93,0,0,1,244,594.45a355.61,355.61,0,0,1,.65-76.94,318.33,318.33,0,0,1,6.61-37.38,268,268,0,0,1,11.25-35.9A213.85,213.85,0,0,1,279,411c-8.05,23.22-11.47,47.35-11.91,71.2a301.54,301.54,0,0,0,1.52,35.61,324.28,324.28,0,0,0,5.46,34.89,314.83,314.83,0,0,0,9.07,33.65,252.6,252.6,0,0,0,12.7,31.46c2.43,5,5,9.75,7.78,14.25a109.22,109.22,0,0,0,8.66,12.38,67.56,67.56,0,0,0,4.53,5,42.85,42.85,0,0,0,4.38,3.81,14.83,14.83,0,0,0,3.6,2c.95.32,1.55.22,1.42-.2Z"/>
    <circle class="cls-3" cx="313.24" cy="684.46" r="34.53"/>
    <path class="cls-2" d="M906.56,698c-.6,2.16-1.23,4.39-1.9,6.44s-1.37,3.92-2.09,5.74-1.46,3.53-2.21,5.24l-2.31,4.83a182.73,182.73,0,0,1-9.76,16.94,279.17,279.17,0,0,1-21.09,28.12A456.5,456.5,0,0,1,821,812.08a567.09,567.09,0,0,1-50.33,39.59,546.8,546.8,0,0,1-54,33.4,464.07,464.07,0,0,1-57.49,26.32,359.64,359.64,0,0,1-60.58,17.12,271,271,0,0,1-62.21,4.64,217.39,217.39,0,0,1-60.15-11.24,211.34,211.34,0,0,0,59.65,0,253.93,253.93,0,0,0,56.63-15.06,331.61,331.61,0,0,0,52-25.88,424.59,424.59,0,0,0,47.3-33.44,510.25,510.25,0,0,0,80.2-81.95,380.52,380.52,0,0,0,31-45.93,193.65,193.65,0,0,0,11.18-22.84,89.74,89.74,0,0,0,3.41-10.21l.49-2.17.29-1.88c.06-.57,0-1,.09-1.49s-.13-.61-.14-.89Z"/>
    <circle class="cls-4" cx="861.77" cy="689.45" r="46.22"/>
  </g>
  <g id="图层_3" data-name="图层 3">
    <path class="cls-2" d="M555.26,42.46c2.73.26,5.56.46,8.1.86,1.3.18,2.61.35,3.88.55l3.75.66c5,.88,9.76,1.95,14.5,3.06,9.43,2.28,18.56,4.9,27.57,7.73,18,5.69,35.52,12.14,52.72,19.34a495.36,495.36,0,0,1,50.31,24.15A242.07,242.07,0,0,1,739.7,113.7c.94.69,1.89,1.36,2.81,2.07l2.74,2.17c1.85,1.4,3.55,3,5.3,4.54a56.57,56.57,0,0,1,9,10.51c-6.44-6.55-14.51-10.77-22.66-14.55a234.37,234.37,0,0,0-25.23-9.55,479.57,479.57,0,0,0-52.35-13.2c-17.63-3.5-35.41-6.21-53.05-8.07-8.82-.92-17.62-1.61-26.22-1.91-4.29-.13-8.55-.2-12.64-.09l-3.06.09c-1,.05-2,.13-2.94.19-2,.09-3.74.37-5.56.56Z"/>
    <circle class="cls-5" cx="555.5" cy="65.39" r="24.32"/>
  </g>
</svg>
